<svg width="384" height="450" viewBox="0 0 384 450" fill="none" xmlns="http://www.w3.org/2000/svg">
<path d="M242.614 23.555C263.366 12.7269 284.305 24.9034 284.03 47.8945C283.878 60.5925 294.067 70.0775 306.478 69.8548C328.616 69.4576 341.093 90.9621 330.55 110.45C323.123 124.18 325.563 133.371 338.836 141.653C357.836 153.51 357.798 177.327 338.76 189.034C325.76 197.028 323.17 206.557 330.401 219.782C341.18 239.497 328.917 261.313 306.517 260.973C292.503 260.761 283.729 271.594 283.989 283.796C284.452 305.498 262.4 318.049 243.414 307.652C229.594 300.083 220.152 302.596 211.894 316.037C200.389 334.764 176.282 334.69 164.835 315.893C156.854 302.788 147.185 300.162 133.635 307.422C113.71 318.097 92.8485 305.728 92.6885 283.143C92.5916 269.467 84.6887 261.441 71.0723 261.189C47.8 260.758 35.5452 239.956 46.5623 219.585C53.5183 206.723 50.7793 196.775 38.192 189.185C18.9202 177.564 18.901 153.189 38.1545 141.499C50.8371 133.799 53.5435 123.725 46.4429 110.647C35.6197 90.7129 47.8678 69.8578 70.494 69.6947C84.242 69.5956 92.5968 61.2958 92.6928 47.6418C92.854 24.7247 114.035 12.3209 133.933 23.4911C146.055 30.2965 157.055 27.4535 164.305 15.641C176.671 -4.50823 200.6 -4.31173 212.674 16.0383C219.324 27.2483 230.094 30.049 242.614 23.555ZM122.99 64.5053C80.6769 94.462 62.2857 135.026 70.3048 186.453C81.8314 260.374 162.947 305.212 232.644 277.123C283.279 256.717 316.921 202.544 306.785 144.528C297.551 91.6753 253.029 49.2675 196.39 45.4153C170.195 43.6338 145.836 49.9833 122.99 64.5053Z" fill="#FFD700"/>
<path d="M19.8964 389.946C37.2366 362.652 54.3855 335.664 71.5329 308.675C72.158 307.691 72.7235 306.666 73.395 305.715C74.6159 303.987 75.5063 301.627 78.1805 301.945C80.8923 302.267 81.4549 304.734 81.7789 306.783C84.7393 325.503 99.8414 330.011 114.6 334.565C120.434 336.366 126.108 334.4 131.07 330.753C132.271 329.871 133.641 329.216 134.941 328.469C136.767 327.418 138.688 326.664 140.393 328.511C141.983 330.233 140.879 331.975 139.951 333.546C134.449 342.867 128.933 352.18 123.371 361.465C106.684 389.323 89.9858 417.173 73.2495 445C72.0987 446.914 71.4426 449.946 68.6778 449.722C65.6609 449.478 65.5196 446.23 64.6255 444.006C61.1485 435.356 57.7853 426.661 54.3218 418.007C51.9549 412.092 50.96 411.536 44.9654 413.2C32.2995 416.715 19.6795 420.397 7.00231 423.871C4.94717 424.434 2.4002 426.207 0.644496 423.51C-0.860204 421.199 1.27835 419.446 2.36276 417.708C8.09228 408.524 13.9147 399.398 19.8964 389.946Z" fill="#FFD700"/>
<path d="M304.185 432.76C284.057 399.143 264.118 365.837 244.204 332.516C243.044 330.574 241.106 328.447 243.198 326.204C245.56 323.672 248.036 325.654 249.855 327.102C259.526 334.796 269.081 333.15 279.785 328.746C291.58 323.893 299.535 316.809 301.868 304.018C302.217 302.106 302.888 299.985 305.45 299.806C307.654 299.652 308.64 301.318 309.628 302.875C333.641 340.72 357.653 378.566 381.644 416.426C382.599 417.933 384.056 419.628 382.509 421.397C381.101 423.008 379.108 422.28 377.348 421.789C364.683 418.254 352.022 414.702 339.363 411.145C332.61 409.248 331.538 409.768 328.911 416.386C325.409 425.21 321.948 434.05 318.413 442.861C317.703 444.63 317.595 447.094 315.081 447.37C312.297 447.677 311.677 445.08 310.572 443.343C308.426 439.97 306.435 436.499 304.185 432.76Z" fill="#FFD700"/>
<path d="M135.035 263.064C102.375 244.342 83.0882 216.531 78.0732 179.753C71.8146 133.856 94.3739 86.7124 140.479 64.8716C197.18 38.0114 263.619 62.0875 289.569 119.247C319.403 184.961 280.816 260.035 210.361 274.322C184.141 279.639 159.043 275.836 135.035 263.064Z" fill="#FFD700"/>
<path d="M207.443 118.909V212H182.17V142.182H181.625L161.261 154.364V132.909L184.17 118.909H207.443Z" fill="white"/>
</svg>
