<svg width="206" height="275" viewBox="0 0 206 275" fill="none" xmlns="http://www.w3.org/2000/svg">
<path d="M42.4095 160.683L3.11273 244.5C1.8755 247.034 3.18147 248.624 7.30557 247.839L39.2968 240.887C39.6103 240.777 39.9432 240.734 40.2743 240.76C40.6054 240.785 40.9276 240.88 41.2203 241.037C41.513 241.194 41.7699 241.41 41.9746 241.671C42.1793 241.933 42.3274 242.234 42.4095 242.556L56.8144 272.083C58.1891 275.264 59.7798 275.912 61.0171 273.389L102.847 185.663L42.4095 160.683V160.683ZM163.58 160.683L202.876 244.5C204.182 247.034 202.808 248.624 198.683 247.839L166.692 240.887C166.379 240.78 166.046 240.739 165.716 240.766C165.386 240.794 165.065 240.888 164.773 241.045C164.481 241.202 164.225 241.417 164.019 241.676C163.814 241.936 163.664 242.236 163.58 242.556L149.175 272.083C147.8 275.264 146.278 275.912 144.972 273.389L103.142 185.663L163.58 160.683Z" fill="#DE7818"/>
<path d="M91.1917 210.053C91.1917 210.122 91.0542 210.053 90.907 210.053C68.9783 207.621 48.4197 198.178 32.2858 183.129C32.2073 183.05 31.9912 182.982 32.06 182.903L33.8667 179.074C33.9453 178.926 34.0827 179.29 34.1613 179.368C49.6463 193.763 71.1505 202.817 93.1457 205.487C93.2243 205.487 93.3716 205.487 93.3716 205.566L91.1917 210.053Z" fill="#B35454"/>
<path d="M102.994 205.989C159.877 205.989 205.989 159.877 205.989 102.994C205.989 46.1122 159.877 0 102.994 0C46.1122 0 0 46.1122 0 102.994C0 159.877 46.1122 205.989 102.994 205.989Z" fill="#F0CD0A"/>
<path d="M102.994 191.811C152.046 191.811 191.81 152.047 191.81 102.995C191.81 53.944 152.046 14.1799 102.994 14.1799C53.9431 14.1799 14.179 53.944 14.179 102.995C14.179 152.047 53.9431 191.811 102.994 191.811Z" fill="#D2B309"/>
<path d="M105.449 191.476C152.901 191.476 191.368 153.009 191.368 105.557C191.368 58.1053 152.901 19.6382 105.449 19.6382C57.9977 19.6382 19.5305 58.1053 19.5305 105.557C19.5305 153.009 57.9977 191.476 105.449 191.476Z" fill="#E3C101"/>
<path d="M123.468 61.3636V145H100.763V82.2727H100.272L81.977 93.2173V73.9418L102.559 61.3636H123.468Z" fill="white"/>
<path d="M127.248 30.333C143.274 34.1633 157.583 43.1871 167.945 55.9982C178.307 68.8094 184.14 84.6883 184.535 101.161C184.931 117.633 179.867 133.774 170.132 147.068C160.397 160.361 146.538 170.062 130.714 174.657C150.697 159.388 163.943 133.328 163.943 103.722C163.943 72.4577 149.175 45.1699 127.238 30.333H127.248Z" fill="white" fill-opacity="0.2"/>
<path d="M114.797 210.055C114.866 210.124 115.013 210.055 115.082 210.055C137.598 207.227 158.287 198.174 173.86 183.268C173.929 183.199 174.145 183.13 174.076 183.052L172.26 179.222C172.191 179.075 172.044 179.438 171.965 179.507C156.48 193.912 134.917 202.818 112.843 205.489C112.765 205.489 112.617 205.489 112.617 205.567L114.797 210.055V210.055Z" fill="#B35454"/>
</svg>
