<svg width="900" height="155" viewBox="0 0 900 155" fill="none" xmlns="http://www.w3.org/2000/svg">
<path d="M0 0.48999L21.5 6.424C43 12.2935 86 24.1615 128.8 23.3875C171.7 22.6135 214.3 9.3265 257.2 6.7465C300 4.1665 343 12.2935 385.8 20.6785C428.7 29.0635 471.3 37.7065 514.2 35.32C557 32.9335 600 19.6465 642.8 12.229C685.7 4.8115 728.3 3.2635 771.2 5.134C814 6.94 857 12.1 878.5 14.68L900 17.26V154.645H878.5C857 154.645 814 154.645 771.2 154.645C728.3 154.645 685.7 154.645 642.8 154.645C600 154.645 557 154.645 514.2 154.645C471.3 154.645 428.7 154.645 385.8 154.645C343 154.645 300 154.645 257.2 154.645C214.3 154.645 171.7 154.645 128.8 154.645C86 154.645 43 154.645 21.5 154.645H0V0.48999Z" fill="#C2DEFF"/>
<path d="M0 31.45L21.5 34.2235C43 37.0615 86 42.6085 128.8 42.2215C171.7 41.77 214.3 35.32 257.2 31.7725C300 28.225 343 27.58 385.8 29.515C428.7 31.45 471.3 35.965 514.2 38.9965C557 41.9635 600 43.5115 642.8 47.7685C685.7 52.09 728.3 59.185 771.2 59.6365C814 60.0235 857 53.8315 878.5 50.671L900 47.575V154.645H878.5C857 154.645 814 154.645 771.2 154.645C728.3 154.645 685.7 154.645 642.8 154.645C600 154.645 557 154.645 514.2 154.645C471.3 154.645 428.7 154.645 385.8 154.645C343 154.645 300 154.645 257.2 154.645C214.3 154.645 171.7 154.645 128.8 154.645C86 154.645 43 154.645 21.5 154.645H0V31.45Z" fill="#B8D9FF"/>
<path d="M0 44.995L21.5 45.64C43 46.285 86 47.575 128.8 47.704C171.7 47.7685 214.3 46.7365 257.2 51.316C300 55.96 343 66.28 385.8 69.3115C428.7 72.2785 471.3 68.0215 514.2 65.635C557 63.2485 600 62.8615 642.8 65.1835C685.7 67.57 728.3 72.73 771.2 70.3435C814 68.0215 857 58.0885 878.5 53.1865L900 48.22V154.645H878.5C857 154.645 814 154.645 771.2 154.645C728.3 154.645 685.7 154.645 642.8 154.645C600 154.645 557 154.645 514.2 154.645C471.3 154.645 428.7 154.645 385.8 154.645C343 154.645 300 154.645 257.2 154.645C214.3 154.645 171.7 154.645 128.8 154.645C86 154.645 43 154.645 21.5 154.645H0V44.995Z" fill="#AED4FF"/>
<path d="M0 94.66L21.5 94.3375C43 94.015 86 93.37 128.8 91.951C171.7 90.5965 214.3 88.4035 257.2 85.1785C300 81.9535 343 77.6965 385.8 80.599C428.7 83.5015 471.3 93.5635 514.2 97.111C557 100.658 600 97.6915 642.8 97.369C685.7 97.0465 728.3 99.3685 771.2 97.369C814 95.305 857 88.855 878.5 85.63L900 82.405V154.645H878.5C857 154.645 814 154.645 771.2 154.645C728.3 154.645 685.7 154.645 642.8 154.645C600 154.645 557 154.645 514.2 154.645C471.3 154.645 428.7 154.645 385.8 154.645C343 154.645 300 154.645 257.2 154.645C214.3 154.645 171.7 154.645 128.8 154.645C86 154.645 43 154.645 21.5 154.645H0V94.66Z" fill="#A4CEFF"/>
<path d="M0 98.53L21.5 99.4975C43 100.465 86 102.4 128.8 104.464C171.7 106.464 214.3 108.656 257.2 106.141C300 103.69 343 96.595 385.8 94.4665C428.7 92.2735 471.3 95.1115 514.2 97.885C557 100.659 600 103.497 642.8 104.142C685.7 104.787 728.3 103.239 771.2 104.142C814 104.98 857 108.205 878.5 109.818L900 111.43V154.645H878.5C857 154.645 814 154.645 771.2 154.645C728.3 154.645 685.7 154.645 642.8 154.645C600 154.645 557 154.645 514.2 154.645C471.3 154.645 428.7 154.645 385.8 154.645C343 154.645 300 154.645 257.2 154.645C214.3 154.645 171.7 154.645 128.8 154.645C86 154.645 43 154.645 21.5 154.645H0V98.53Z" fill="#99C9FF"/>
<path d="M0 122.395L21.5 121.879C43 121.298 86 120.266 128.8 118.847C171.7 117.428 214.3 115.751 257.2 118.976C300 122.201 343 130.328 385.8 133.876C428.7 137.423 471.3 136.391 514.2 136.391C557 136.391 600 137.423 642.8 134.521C685.7 131.618 728.3 124.781 771.2 123.362C814 121.943 857 126.071 878.5 128.071L900 130.135V154.645H878.5C857 154.645 814 154.645 771.2 154.645C728.3 154.645 685.7 154.645 642.8 154.645C600 154.645 557 154.645 514.2 154.645C471.3 154.645 428.7 154.645 385.8 154.645C343 154.645 300 154.645 257.2 154.645C214.3 154.645 171.7 154.645 128.8 154.645C86 154.645 43 154.645 21.5 154.645H0V122.395Z" fill="#8EC3FF"/>
</svg>
