<svg width="206" height="275" viewBox="0 0 206 275" fill="none" xmlns="http://www.w3.org/2000/svg">
<path d="M42.4095 160.683L3.1127 244.5C1.87547 247.034 3.18144 248.624 7.30554 247.839L39.2968 240.887C39.6103 240.777 39.9432 240.734 40.2743 240.76C40.6054 240.785 40.9276 240.88 41.2203 241.037C41.513 241.194 41.7698 241.41 41.9745 241.671C42.1793 241.933 42.3274 242.234 42.4095 242.556L56.8144 272.083C58.1891 275.264 59.7798 275.912 61.017 273.389L102.847 185.663L42.4095 160.683V160.683ZM163.579 160.683L202.876 244.5C204.182 247.034 202.808 248.624 198.683 247.839L166.692 240.887C166.379 240.78 166.046 240.739 165.716 240.766C165.386 240.794 165.065 240.888 164.773 241.045C164.481 241.202 164.225 241.417 164.019 241.676C163.814 241.936 163.664 242.236 163.579 242.556L149.175 272.083C147.8 275.264 146.278 275.912 144.972 273.389L103.142 185.663L163.579 160.683Z" fill="#DE7818"/>
<path d="M91.1917 210.053C91.1917 210.122 91.0542 210.053 90.9069 210.053C68.9783 207.621 48.4197 198.178 32.2858 183.129C32.2072 183.05 31.9912 182.982 32.0599 182.903L33.8667 179.074C33.9452 178.926 34.0827 179.29 34.1613 179.368C49.6463 193.763 71.1505 202.817 93.1457 205.487C93.2243 205.487 93.3716 205.487 93.3716 205.566L91.1917 210.053Z" fill="#B35454"/>
<path d="M102.994 205.989C159.877 205.989 205.989 159.877 205.989 102.994C205.989 46.1122 159.877 0 102.994 0C46.1122 0 0 46.1122 0 102.994C0 159.877 46.1122 205.989 102.994 205.989Z" fill="#B5B5B5"/>
<path d="M102.995 191.811C152.046 191.811 191.81 152.047 191.81 102.995C191.81 53.944 152.046 14.1799 102.995 14.1799C53.9431 14.1799 14.1791 53.944 14.1791 102.995C14.1791 152.047 53.9431 191.811 102.995 191.811Z" fill="#9C9C9F"/>
<path d="M105.449 191.476C152.901 191.476 191.368 153.009 191.368 105.557C191.368 58.1053 152.901 19.6382 105.449 19.6382C57.9977 19.6382 19.5305 58.1053 19.5305 105.557C19.5305 153.009 57.9977 191.476 105.449 191.476Z" fill="#D2D2D4"/>
<path d="M74.3811 145V128.665L105.581 102.855C107.651 101.14 109.42 99.5336 110.89 98.0362C112.388 96.5116 113.531 94.9461 114.321 93.3398C115.138 91.7335 115.546 89.9503 115.546 87.9901C115.546 85.8393 115.083 84.0015 114.157 82.4769C113.259 80.9523 112.007 79.7816 110.4 78.9648C108.794 78.1209 106.943 77.6989 104.846 77.6989C102.75 77.6989 100.899 78.1209 99.2923 78.9648C97.7133 79.8088 96.4881 81.0476 95.6169 82.6811C94.7457 84.3146 94.3101 86.3021 94.3101 88.6435H72.7476C72.7476 82.7628 74.068 77.6989 76.7089 73.4517C79.3498 69.2045 83.0796 65.9375 87.8985 63.6506C92.7174 61.3636 98.3667 60.2202 104.846 60.2202C111.544 60.2202 117.343 61.2956 122.243 63.4464C127.171 65.57 130.969 68.5647 133.637 72.4308C136.332 76.2968 137.68 80.8298 137.68 86.0298C137.68 89.2424 137.013 92.4414 135.679 95.6268C134.345 98.7849 131.949 102.283 128.492 106.122C125.034 109.961 120.12 114.535 113.749 119.844L105.908 126.378V126.868H138.579V145H74.3811Z" fill="white"/>
<path d="M127.248 30.333C143.274 34.1633 157.583 43.1871 167.945 55.9982C178.307 68.8094 184.14 84.6883 184.535 101.161C184.931 117.633 179.867 133.774 170.132 147.068C160.397 160.361 146.538 170.062 130.714 174.657C150.697 159.388 163.943 133.328 163.943 103.722C163.943 72.4577 149.175 45.1699 127.238 30.333H127.248Z" fill="white" fill-opacity="0.2"/>
<path d="M114.797 210.055C114.866 210.124 115.013 210.055 115.082 210.055C137.598 207.227 158.287 198.174 173.86 183.268C173.929 183.199 174.145 183.13 174.076 183.052L172.26 179.222C172.191 179.075 172.044 179.438 171.965 179.507C156.48 193.912 134.917 202.818 112.843 205.489C112.765 205.489 112.617 205.489 112.617 205.567L114.797 210.055V210.055Z" fill="#B35454"/>
</svg>
