<svg width="384" height="450" viewBox="0 0 384 450" fill="none" xmlns="http://www.w3.org/2000/svg">
<path d="M242.489 22.9034C263.24 12.0753 284.18 24.2518 283.904 47.2429C283.752 59.9409 293.942 69.4259 306.353 69.2032C328.49 68.806 340.968 90.3105 330.425 109.798C322.997 123.528 325.437 132.719 338.71 141.002C357.711 152.859 357.672 176.676 338.634 188.383C325.635 196.376 323.044 205.905 330.275 219.13C341.054 238.845 328.792 260.661 306.391 260.322C292.378 260.109 283.603 270.942 283.864 283.145C284.327 304.846 262.274 317.398 243.288 307C229.469 299.432 220.026 301.944 211.769 315.385C200.264 334.112 176.157 334.039 164.71 315.242C156.728 302.136 147.059 299.511 133.509 306.77C113.584 317.446 92.723 305.076 92.5629 282.492C92.466 268.816 84.5631 260.789 70.9468 260.537C47.6745 260.107 35.4196 239.305 46.4367 218.933C53.3927 206.071 50.6538 196.124 38.0665 188.533C18.7947 176.912 18.7755 152.537 38.0289 140.847C50.7116 133.147 53.418 123.073 46.3174 109.995C35.4941 90.0613 47.7423 69.2062 70.3685 69.0431C84.1165 68.944 92.4713 60.6441 92.5673 46.9902C92.7285 24.0731 113.909 11.6693 133.807 22.8395C145.93 29.6449 156.93 26.8019 164.179 14.9894C176.545 -5.15984 200.475 -4.96334 212.548 15.3867C219.199 26.5967 229.969 29.3974 242.489 22.9034ZM122.864 63.8537C80.5514 93.8104 62.1602 134.374 70.1793 185.801C81.7058 259.723 162.821 304.56 232.518 276.472C283.154 256.065 316.796 201.892 306.659 143.877C297.425 91.0237 252.904 48.6159 196.264 44.7637C170.069 42.9822 145.71 49.3316 122.864 63.8537Z" fill="#CD7F32"/>
<path d="M19.7709 389.294C37.111 362 54.2599 335.012 71.4074 308.024C72.0325 307.039 72.598 306.014 73.2695 305.064C74.4904 303.335 75.3808 300.976 78.055 301.293C80.7668 301.615 81.3294 304.083 81.6534 306.131C84.6138 324.851 99.7158 329.359 114.475 333.914C120.309 335.714 125.983 333.748 130.945 330.102C132.146 329.219 133.516 328.565 134.815 327.817C136.642 326.766 138.563 326.013 140.268 327.86C141.858 329.582 140.753 331.324 139.826 332.895C134.324 342.216 128.807 351.528 123.245 360.814C106.559 388.671 89.8603 416.521 73.124 444.349C71.9732 446.262 71.317 449.294 68.5523 449.071C65.5354 448.826 65.3941 445.579 64.4999 443.354C61.023 434.705 57.6598 426.01 54.1963 417.355C51.8294 411.44 50.8345 410.884 44.8399 412.548C32.174 416.064 19.554 419.745 6.8768 423.219C4.82165 423.782 2.27468 425.556 0.518977 422.859C-0.985723 420.547 1.15283 418.795 2.23724 417.056C7.96676 407.873 13.7892 398.747 19.7709 389.294Z" fill="#CD7F32"/>
<path d="M304.06 432.109C283.931 398.491 263.992 365.186 244.079 331.865C242.918 329.923 240.98 327.795 243.073 325.552C245.435 323.021 247.91 325.003 249.73 326.45C259.4 334.144 268.956 332.498 279.66 328.094C291.454 323.241 299.41 316.157 301.742 303.366C302.091 301.454 302.763 299.333 305.325 299.154C307.528 299 308.514 300.667 309.502 302.224C333.516 340.069 357.528 377.915 381.518 415.774C382.473 417.281 383.93 418.976 382.384 420.745C380.975 422.356 378.982 421.629 377.222 421.137C364.557 417.602 351.897 414.05 339.238 410.493C332.485 408.596 331.412 409.117 328.786 415.735C325.283 424.558 321.823 433.399 318.288 442.209C317.578 443.978 317.47 446.442 314.955 446.719C312.171 447.025 311.551 444.428 310.446 442.691C308.3 439.319 306.31 435.848 304.06 432.109Z" fill="#CD7F32"/>
<path d="M134.909 262.412C102.25 243.691 82.9627 215.879 77.9476 179.101C71.6891 133.204 94.2484 86.0608 140.354 64.22C197.055 37.3598 263.493 61.4359 289.444 118.596C319.277 184.309 280.69 259.383 210.236 273.67C184.016 278.987 158.918 275.184 134.909 262.412Z" fill="#CD7F32"/>
<path d="M187.232 212.621C179.899 212.621 173.384 211.364 167.687 208.848C162.02 206.303 157.566 202.803 154.323 198.348C151.081 193.894 149.445 188.773 149.414 182.985H174.869C174.899 184.773 175.445 186.379 176.505 187.803C177.596 189.197 179.081 190.288 180.96 191.076C182.839 191.864 184.99 192.257 187.414 192.257C189.748 192.257 191.808 191.848 193.596 191.03C195.384 190.182 196.778 189.015 197.778 187.53C198.778 186.045 199.263 184.348 199.232 182.439C199.263 180.561 198.687 178.894 197.505 177.439C196.354 175.985 194.732 174.848 192.642 174.03C190.551 173.212 188.142 172.803 185.414 172.803H175.96V155.348H185.414C187.929 155.348 190.142 154.939 192.051 154.121C193.99 153.303 195.49 152.167 196.551 150.712C197.642 149.257 198.172 147.591 198.142 145.712C198.172 143.894 197.732 142.288 196.823 140.894C195.914 139.5 194.642 138.409 193.005 137.621C191.399 136.833 189.535 136.439 187.414 136.439C185.111 136.439 183.051 136.848 181.232 137.667C179.445 138.485 178.035 139.621 177.005 141.076C175.975 142.53 175.445 144.197 175.414 146.076H151.232C151.263 140.379 152.823 135.348 155.914 130.985C159.035 126.621 163.308 123.197 168.732 120.712C174.157 118.227 180.384 116.985 187.414 116.985C194.293 116.985 200.369 118.151 205.642 120.485C210.945 122.818 215.081 126.03 218.051 130.121C221.051 134.182 222.535 138.833 222.505 144.076C222.566 149.288 220.778 153.561 217.142 156.894C213.535 160.227 208.96 162.197 203.414 162.803V163.53C210.929 164.348 216.581 166.651 220.369 170.439C224.157 174.197 226.02 178.924 225.96 184.621C225.99 190.076 224.354 194.909 221.051 199.121C217.778 203.333 213.217 206.636 207.369 209.03C201.551 211.424 194.839 212.621 187.232 212.621Z" fill="white"/>
</svg>
