<svg width="206" height="275" viewBox="0 0 206 275" fill="none" xmlns="http://www.w3.org/2000/svg">
<path d="M42.4095 160.683L3.1127 244.5C1.87547 247.034 3.18144 248.624 7.30554 247.839L39.2968 240.887C39.6103 240.777 39.9432 240.734 40.2743 240.76C40.6054 240.785 40.9276 240.88 41.2203 241.037C41.513 241.194 41.7698 241.41 41.9745 241.671C42.1793 241.933 42.3274 242.234 42.4095 242.556L56.8144 272.083C58.1891 275.264 59.7798 275.912 61.017 273.389L102.847 185.663L42.4095 160.683V160.683ZM163.579 160.683L202.876 244.5C204.182 247.034 202.808 248.624 198.683 247.839L166.692 240.887C166.379 240.78 166.046 240.739 165.716 240.766C165.386 240.794 165.065 240.888 164.773 241.045C164.481 241.202 164.225 241.417 164.019 241.676C163.814 241.936 163.664 242.236 163.579 242.556L149.175 272.083C147.8 275.264 146.278 275.912 144.972 273.389L103.142 185.663L163.579 160.683Z" fill="#DE7818"/>
<path d="M91.1917 210.053C91.1917 210.122 91.0542 210.053 90.9069 210.053C68.9783 207.621 48.4197 198.178 32.2858 183.129C32.2072 183.05 31.9912 182.982 32.0599 182.903L33.8667 179.074C33.9452 178.926 34.0827 179.29 34.1613 179.368C49.6463 193.763 71.1505 202.817 93.1457 205.487C93.2243 205.487 93.3716 205.487 93.3716 205.566L91.1917 210.053Z" fill="#B35454"/>
<path d="M102.994 205.989C159.877 205.989 205.989 159.877 205.989 102.994C205.989 46.1122 159.877 0 102.994 0C46.1122 0 0 46.1122 0 102.994C0 159.877 46.1122 205.989 102.994 205.989Z" fill="#CD7F32"/>
<path d="M102.995 191.811C152.046 191.811 191.81 152.047 191.81 102.995C191.81 53.944 152.046 14.1799 102.995 14.1799C53.9431 14.1799 14.1791 53.944 14.1791 102.995C14.1791 152.047 53.9431 191.811 102.995 191.811Z" fill="#DBB779"/>
<path d="M105.449 191.476C152.901 191.476 191.368 153.009 191.368 105.557C191.368 58.1053 152.901 19.6382 105.449 19.6382C57.9977 19.6382 19.5305 58.1053 19.5305 105.557C19.5305 153.009 57.9977 191.476 105.449 191.476Z" fill="#CD7F32" fill-opacity="0.7"/>
<path d="M105.423 146.143C98.8346 146.143 92.9812 145.014 87.8628 142.754C82.7716 140.467 78.7695 137.322 75.8564 133.32C72.9433 129.318 71.4731 124.717 71.4459 119.517H94.3152C94.3424 121.123 94.8325 122.566 95.7854 123.846C96.7655 125.098 98.0995 126.078 99.7875 126.786C101.475 127.494 103.408 127.848 105.587 127.848C107.683 127.848 109.534 127.48 111.14 126.745C112.747 125.983 113.999 124.935 114.898 123.601C115.796 122.267 116.232 120.742 116.204 119.027C116.232 117.339 115.714 115.842 114.653 114.535C113.618 113.228 112.161 112.207 110.283 111.472C108.404 110.737 106.24 110.369 103.79 110.369H95.2953V94.6875H103.79C106.049 94.6875 108.037 94.32 109.752 93.5849C111.494 92.8498 112.842 91.8288 113.795 90.522C114.775 89.2152 115.252 87.7178 115.224 86.0298C115.252 84.3963 114.857 82.9534 114.04 81.701C113.223 80.4486 112.08 79.4685 110.61 78.7607C109.167 78.0528 107.492 77.6989 105.587 77.6989C103.517 77.6989 101.666 78.0664 100.033 78.8015C98.4262 79.5366 97.1603 80.5575 96.2346 81.8643C95.3089 83.1712 94.8325 84.6686 94.8053 86.3565H73.0794C73.1066 81.2382 74.5087 76.7187 77.2857 72.7983C80.0899 68.8778 83.9287 65.8014 88.8021 63.5689C93.6754 61.3364 99.2702 60.2202 105.587 60.2202C111.767 60.2202 117.225 61.2683 121.963 63.3647C126.727 65.4611 130.443 68.3469 133.111 72.0224C135.807 75.6706 137.141 79.8497 137.114 84.5597C137.168 89.2424 135.562 93.0812 132.295 96.076C129.055 99.0708 124.944 100.84 119.962 101.385V102.038C126.713 102.773 131.791 104.843 135.194 108.246C138.597 111.622 140.272 115.869 140.217 120.987C140.244 125.888 138.774 130.23 135.807 134.015C132.866 137.799 128.769 140.766 123.514 142.917C118.287 145.068 112.257 146.143 105.423 146.143Z" fill="white"/>
<path d="M127.248 30.333C143.274 34.1633 157.583 43.1871 167.945 55.9982C178.307 68.8094 184.14 84.6883 184.535 101.161C184.931 117.633 179.867 133.774 170.132 147.068C160.397 160.361 146.538 170.062 130.714 174.657C150.697 159.388 163.943 133.328 163.943 103.722C163.943 72.4577 149.175 45.1699 127.238 30.333H127.248Z" fill="white" fill-opacity="0.2"/>
<path d="M114.797 210.055C114.866 210.124 115.013 210.055 115.082 210.055C137.598 207.227 158.287 198.174 173.86 183.268C173.929 183.199 174.145 183.13 174.076 183.052L172.26 179.222C172.191 179.075 172.044 179.438 171.965 179.507C156.48 193.912 134.917 202.818 112.843 205.489C112.765 205.489 112.617 205.489 112.617 205.567L114.797 210.055V210.055Z" fill="#B35454"/>
</svg>
