<svg width="193" height="193" viewBox="0 0 193 193" fill="none" xmlns="http://www.w3.org/2000/svg">
<circle cx="96.5" cy="96.5" r="86.5" fill="#8EC3FF" stroke="#8EC3FF" stroke-width="20"/>
<path d="M71.5625 135V55H106.094C112.031 55 117.227 56.1719 121.68 58.5156C126.133 60.8594 129.596 64.1536 132.07 68.3984C134.544 72.6432 135.781 77.6042 135.781 83.2812C135.781 89.0104 134.505 93.9714 131.953 98.1641C129.427 102.357 125.872 105.586 121.289 107.852C116.732 110.117 111.406 111.25 105.313 111.25H84.6875V94.375H100.938C103.49 94.375 105.664 93.9323 107.461 93.0469C109.284 92.1354 110.677 90.8464 111.641 89.1797C112.63 87.513 113.125 85.5469 113.125 83.2812C113.125 80.9896 112.63 79.0365 111.641 77.4219C110.677 75.7812 109.284 74.5312 107.461 73.6719C105.664 72.7865 103.49 72.3437 100.938 72.3437H93.2813V135H71.5625Z" fill="white"/>
</svg>
